<?xml version="1.0" standalone="no"?>
<!DOCTYPE svg PUBLIC "-//W3C//DTD SVG 20010904//EN"
 "http://www.w3.org/TR/2001/REC-SVG-20010904/DTD/svg10.dtd">
<svg version="1.0" xmlns="http://www.w3.org/2000/svg"
 width="500.000000pt" height="172.000000pt" viewBox="0 0 500.000000 172.000000"
 preserveAspectRatio="xMidYMid meet">

<g transform="translate(0.000000,172.000000) scale(0.100000,-0.100000)"
fill="#000000" stroke="none">
<path d="M3936 1555 c-15 -8 -35 -15 -43 -15 -27 0 -130 -61 -196 -115 -67
-55 -187 -206 -187 -235 0 -9 -4 -20 -8 -25 -31 -36 -76 -236 -69 -309 15
-156 74 -297 176 -416 97 -113 187 -176 311 -217 89 -29 449 -12 515 24 11 7
27 14 35 18 95 39 224 164 280 273 12 23 26 45 31 48 5 3 9 14 9 26 0 11 6 34
14 51 8 18 22 74 32 124 17 89 17 97 0 190 -20 113 -36 163 -80 252 -43 90
-168 215 -259 260 -37 18 -70 37 -73 42 -3 5 -17 9 -32 9 -15 1 -38 7 -52 15
-37 21 -363 21 -404 0z m352 -204 c9 -6 38 -20 65 -32 63 -30 150 -118 194
-196 42 -75 61 -187 43 -253 l-11 -40 -438 0 -438 0 -18 39 c-16 36 -16 47 -4
108 13 68 50 149 97 211 28 36 164 142 184 142 7 1 24 7 38 15 29 17 259 21
288 6z"/>
<path d="M1305 1094 c-61 -10 -113 -43 -168 -108 -85 -100 -110 -220 -67 -321
21 -50 124 -165 147 -165 7 0 24 -7 38 -16 30 -20 191 -15 248 8 80 32 154
128 173 226 20 104 -9 207 -78 284 -57 62 -107 86 -189 92 -41 2 -87 2 -104 0z
m115 -110 c121 -42 185 -159 144 -265 -21 -54 -38 -75 -87 -106 -31 -19 -51
-24 -112 -24 -70 0 -78 2 -116 32 -63 50 -89 98 -89 165 0 91 60 171 149 198
60 18 59 18 111 0z"/>
<path d="M2840 1094 c-81 -16 -160 -90 -215 -201 -38 -79 -45 -140 -21 -190 7
-15 22 -46 32 -67 22 -46 108 -136 130 -136 8 0 25 -7 39 -16 30 -20 191 -15
248 8 79 31 154 128 177 229 11 48 10 66 -4 129 -21 91 -68 159 -143 207 -48
30 -63 34 -136 38 -45 2 -93 1 -107 -1z m144 -115 c48 -12 83 -40 115 -93 33
-53 31 -150 -3 -205 -42 -66 -92 -91 -180 -91 -69 0 -78 3 -118 33 -111 85
-118 216 -17 315 46 45 124 61 203 41z"/>
<path d="M390 785 l0 -306 155 6 c85 3 175 9 199 14 61 11 140 72 176 135 26
45 30 61 30 133 0 124 -33 194 -121 259 -61 45 -114 56 -291 61 l-148 4 0
-306z m350 176 c19 -10 48 -35 65 -55 28 -35 30 -44 30 -119 0 -94 -18 -129
-86 -173 -34 -21 -50 -24 -139 -24 l-100 0 0 188 c0 104 3 192 7 195 3 4 47 7
97 7 70 0 99 -4 126 -19z"/>
<path d="M1806 1073 c-10 -26 -5 -556 5 -575 14 -27 85 -25 94 2 3 11 5 78 3
149 -1 72 1 133 5 138 16 16 44 -17 99 -118 32 -57 63 -115 69 -129 16 -38 40
-60 64 -60 32 0 35 5 143 213 25 48 51 87 57 87 31 0 37 -29 30 -134 -4 -58
-4 -119 0 -135 6 -29 10 -31 51 -31 37 0 44 3 49 23 3 12 4 148 3 302 l-3 280
-44 0 -45 0 -50 -96 c-28 -53 -56 -103 -62 -110 -6 -8 -30 -54 -54 -104 -65
-137 -79 -139 -142 -17 -169 331 -170 332 -223 332 -31 0 -45 -5 -49 -17z"/>
</g>
</svg>
